<?xml version="1.0" encoding="UTF-8"?>
<svg version="1.1" viewBox="0 0 365.83 163.18" xml:space="preserve" xmlns="http://www.w3.org/2000/svg" xmlns:cc="http://creativecommons.org/ns#" xmlns:dc="http://purl.org/dc/elements/1.1/" xmlns:rdf="http://www.w3.org/1999/02/22-rdf-syntax-ns#">
  <metadata>
    <rdf:RDF>
      <cc:Work rdf:about="">
        <dc:format>image/svg+xml</dc:format>
        <dc:type rdf:resource="http://purl.org/dc/dcmitype/StillImage" />
      </cc:Work>
    </rdf:RDF>
  </metadata>
  <defs>
    <clipPath id="b">
      <path d="M 0,122.383 H 274.375 V 0 H 0 Z" />
    </clipPath>
    <clipPath id="a">
      <path d="m0 0h274.38v122.38h-274.38z" />
    </clipPath>
  </defs>
  <g transform="matrix(1.3333 0 0 -1.3333 0 163.18)">
    <g clip-path="url(#b)">
      <g transform="translate(28.918 77.08)">
        <path d="m0 0c0.206-3.029 0.481-6.265 3.234-8.881 2.135-1.996 4.337-2.341 6.266-2.341 4.955 0 7.708 2.479 7.708 5.921 0 3.924-3.441 5.231-8.053 6.814-4.06 1.377-10.188 3.511-10.188 10.257 0 5.988 4.474 9.843 11.083 9.843 3.58 0 6.745-1.102 9.637-1.996l0.138-8.811h-1.997c-0.482 2.753-1.584 8.881-8.054 8.881-3.855 0-6.057-2.341-6.057-4.889 0-1.239 0.481-2.34 1.239-3.097 0.963-0.963 1.514-1.171 6.882-3.097 5.37-1.996 10.602-4.13 10.602-11.014 0-6.264-5.094-10.738-12.94-10.738-4.269 0-7.849 1.102-11.428 2.202v10.946z" fill="#2b2b2a" />
      </g>
      <g transform="translate(66.43 106.95)">
        <path d="m0 0-0.138-9.085h7.365v-1.928h-7.296l-0.137-22.922c0.068-2.339 0.068-6.401 3.786-6.401 2.408 0 3.855 1.721 4.886 4.062l1.446-0.689c-1.514-3.166-3.166-5.714-8.879-5.714-7.917 0-7.917 4.957-7.917 8.261l0.209 23.403h-5.37v1.928h5.299l0.138 9.085z" fill="#2b2b2a" />
      </g>
      <g transform="translate(83.499 108.74)">
        <path d="m0 0c0 2.203 1.79 4.062 4.062 4.062 2.134 0 3.992-1.859 3.992-4.062 0-2.202-1.858-3.992-3.992-3.992-1.102 0-2.133 0.412-2.892 1.171-0.758 0.756-1.17 1.788-1.17 2.821m1.309-10.875c2.753 0.069 3.717 0.069 6.401 0.275l-0.069-7.227v-18.793l0.069-5.85h5.507v-1.653h-18.31v1.653h5.919l0.069 5.85v18.793l-0.069 5.299h-5.919v1.653z" fill="#2b2b2a" />
      </g>
      <g transform="translate(113.92 92.292)">
        <path d="m0 0c0.963 1.514 1.79 2.821 3.58 4.13 1.926 1.307 4.816 2.34 8.122 2.34 1.376 0 3.235-0.207 4.887-0.963 3.578-1.653 4.268-4.475 4.749-6.609 1.377 2.548 4.131 7.435 11.842 7.435 1.855 0 4.679-0.207 6.882-2.203 2.684-2.479 2.684-5.783 2.684-8.466l-0.206-15.833 0.066-5.851h5.646v-1.652h-17.966v1.652h5.439l0.068 5.851c0.069 4.406 0.138 8.811 0.138 13.285 0 5.645 0 10.532-5.094 10.532-2.683 0-4.542-1.17-5.851-2.409-3.441-3.372-3.58-8.674-3.716-13.216v-8.192l0.068-5.851h5.506v-1.652h-17.826v1.652h5.436l0.07 5.851v13.285c0 3.924-0.07 5.508-0.414 6.952-0.275 0.827-1.032 3.786-4.956 3.786-2.477 0-4.611-0.964-5.988-2.34-3.029-3.097-3.166-8.259-3.305-13.285v-8.398l0.07-5.851h5.3v-1.652h-18.172v1.652h5.919l0.07 5.851v17.553l-0.07 6.538h-5.919v1.654h6.676c3.098 0 3.787 0.069 6.402 0.275z" fill="#2b2b2a" />
      </g>
      <g transform="translate(177.86 92.292)">
        <path d="m0 0c0.965 1.514 1.79 2.821 3.578 4.13 1.929 1.307 4.82 2.34 8.123 2.34 1.377 0 3.236-0.207 4.889-0.963 3.579-1.653 4.265-4.475 4.749-6.609 1.377 2.548 4.13 7.435 11.839 7.435 1.858 0 4.681-0.207 6.885-2.203 2.683-2.479 2.683-5.783 2.683-8.466l-0.206-15.833 0.068-5.851h5.646v-1.652h-17.967v1.652h5.438l0.068 5.851c0.071 4.406 0.139 8.811 0.139 13.285 0 5.645 0 10.532-5.094 10.532-2.685 0-4.543-1.17-5.85-2.409-3.443-3.372-3.581-8.674-3.716-13.216v-8.192l0.067-5.851h5.507v-1.652h-17.829v1.652h5.438l0.069 5.851v13.285c0 3.924-0.069 5.508-0.413 6.952-0.274 0.827-1.033 3.786-4.956 3.786-2.476 0-4.612-0.964-5.988-2.34-3.028-3.097-3.167-8.259-3.306-13.285v-8.398l0.07-5.851h5.3v-1.652h-18.171v1.652h5.92l0.066 5.851v17.553l-0.066 6.538h-5.92v1.654h6.676c3.099 0 3.786 0.069 6.403 0.275z" fill="#2b2b2a" />
      </g>
      <g transform="translate(139.8 26.556)">
        <path d="m0 0h5.852v-1.651h-18.378v1.651h5.782l0.068 5.852v18.378l-0.068 5.783h-5.782v1.583h6.332c2.684 0.066 3.647 0.066 6.333 0.343l-0.069-7.983c1.722 3.647 3.992 8.327 9.497 8.327 4.545 0 6.197-3.511 6.197-6.469 0-2.546-1.034-4.613-3.51-4.613-1.032 0-3.441 0.757-3.441 3.58 0 0.481 0.343 2.616 0.343 3.098 0 1.996-1.377 2.065-1.789 2.065-0.483 0-1.24-0.206-2.411-1.309-4.679-4.611-4.886-11.77-5.024-17.62v-5.163z" fill="#2b2b2a" />
      </g>
      <g transform="translate(194.59 58.151)">
        <path d="m0 0v-1.651h-5.23l-2.204-6.817-8.95-28.498c-1.649-5.229-3.717-11.287-10.186-11.287-6.746 0-6.746 5.299-6.746 5.644 0 2.616 1.653 3.58 3.167 3.58 0.758 0 1.514-0.207 1.996-0.758 0.758-0.758 0.828-0.895 1.034-3.716 0.069-0.687 0.206-2.479 2.271-2.479 3.716 0 5.504 6.058 7.572 12.735l-10.464 24.505-3.167 7.091h-4.956v1.651h18.517v-1.651h-5.783l2.204-5.576 6.746-16.315 5.025 16.247 1.649 5.644h-5.573v1.651z" fill="#2b2b2a" />
      </g>
      <g transform="translate(226.6 35.571)">
        <path d="m0 0c-0.894-2.338-1.722-4.815-3.991-7.157-3.099-3.165-7.16-4.13-10.601-4.13-9.568 0-15.902 7.365-15.902 17.001 0 9.706 6.127 17.485 16.315 17.485 8.192 0 13.077-5.094 13.077-9.567 0-2.41-1.789-3.511-3.578-3.511-3.235 0-3.235 2.548-3.303 3.923 0 1.102 0 2.272-0.278 3.305-0.824 2.82-3.303 4.062-5.848 4.062-8.263 0-8.744-10.327-8.744-15.352 0-6.883 1.791-15.213 9.844-15.213 1.927 0 3.235 0.414 3.993 0.69 4.955 1.927 6.469 6.264 7.364 9.017z" fill="#2b2b2a" />
      </g>
      <g transform="translate(235.48 73.5)">
        <path d="m0 0c2.822 0.069 3.784 0.069 6.472 0.276l-0.07-6.884v-15.075c1.169 2.067 4.128 7.227 11.91 7.227 1.443 0 3.234-0.206 5.021-0.893 4.613-1.929 4.683-5.851 4.752-8.88v-17.209l0.068-5.507h5.299v-1.651h-17.689v1.651h5.438l0.068 5.507v14.111c-0.068 5.644-0.068 10.12-5.369 10.12-2.477 0-4.749-1.033-6.263-2.547-2.96-3.029-3.165-7.573-3.235-11.082v-10.602l0.07-5.507h5.505v-1.651h-18.173v1.651h5.714l0.071 5.507v34.83l-0.071 4.956h-5.714v1.652z" fill="#2b2b2a" />
      </g>
    </g>
    <g clip-path="url(#a)">
      <g transform="translate(15.451 23.169)">
        <path d="m0 0c0-9.948 1.899-16.082 8.954-17.308l-0.182-0.272c-10.219 0.272-13.021 4.905-13.021 19.76v20.578c0 9.132-0.633 13.493-7.234 15.948v0.271c6.511 2.454 7.234 6.814 7.234 15.809v21.942c0 14.309 3.527 18.397 13.021 18.806l0.182-0.273c-7.234-1.635-8.954-7.086-8.954-17.444v-21.941c0-9.267-0.813-14.583-7.595-16.899v-0.271c6.873-2.455 7.595-8.179 7.595-17.445z" fill="#2b2b2a" />
      </g>
    </g>
  </g>
</svg>