<?xml version="1.0" encoding="UTF-8"?>
<svg version="1.1" viewBox="0 0 260 42" xmlns="http://www.w3.org/2000/svg">
<title>logo_stadt_winterthur</title>
<desc>Created with Sketch.</desc>
<g fill="none" fill-rule="evenodd">
<g transform="translate(-45 -47)">
<g transform="translate(45 47)">
<g transform="translate(163.65)" fill="#FF1900">
<path d="m42.947 0.0036706s14.317 27.834 21.211 41.556c-3.5819-0.0091764-7.1622-0.0091764-10.662-0.0091764l-0.27224 0.0091764c-4.1172-8.4301-21.188-41.554-21.188-41.554s7.2632-0.010706 10.911-0.0015294"/>
<path d="m27.491 31.568 5.0134 9.9748c-0.70047 0.0076471-10.784 0-10.784 0-7.0139-13.719-21.175-41.539-21.175-41.539h10.683s15.771 30.512 16.262 31.564"/>
<path d="m91.335 31.568 5.0149 9.9748h-10.787c-7.0124-13.719-21.172-41.539-21.172-41.539h10.68s15.771 30.512 16.264 31.564"/>
<path d="m33.381 11.918c0.041294-0.12541 0.18047-0.29365 0.104-0.35024-0.039765-0.027529-0.22788-0.02447-0.29976 0-0.076471 0.02753-0.091765 0.061176-0.12694 0.11471-0.73565 1.0905 0.79071 1.7435 1.3382 2.5281 0.084118 0.12235 0.084118 0.26 0.094824 0.40224 0.0045883 0.064235 0.052 0.14988 0.15294 0.13306 0.182-0.030588 0.29671-0.286 0.27988-0.37929-0.16212-0.77541-1.0599-1.1562-1.4866-1.8093-0.11929-0.182-0.13612-0.41906-0.056588-0.63929"/>
<path d="m35.492 11.866c-0.056588-0.024471-0.099412 0.067294-0.13459 0.13306-0.25388 0.50471-0.74176 0.87482-0.63012 1.4499 0.065765 0.33494 0.49859 0.57965 0.61635 0.71271 0.052 0.052 0.091765 0.087176 0.079529 0.156-0.045882 0.29518-0.49553 0.67447-0.83047 0.74024-0.36706 0.071882-0.36553-0.65612-0.66529-0.53071-0.29824 0.12847-0.78765 0.858-0.48176 1.0278 0.92529 0.51235 1.2526 0.68365 2.0051 0.82894 1.2296 0.24012 1.6732-1.3398 2.1136-2.184 0.085647-0.16365 0.37776-0.21718 0.34718-0.36094-0.24776-1.1333-1.4208-1.508-2.4195-1.9729m1.3245 2.3048c-0.21718-0.019882-0.24776-0.29976-0.21106-0.51847 0.030588-0.17741 0.22176-0.36247 0.39-0.20647 0.12847 0.12082 0.31812 0.25541 0.28141 0.41906-0.036706 0.19424-0.28753 0.31812-0.46035 0.30588"/>
<path d="m43.406 27.389c-1.092-2.5985-3.8342-3.7333-5.7139-5.7735-0.39765-0.43129-0.58576-1.0874-0.25694-1.5998 0.21259-0.33341 0.55059-0.53224 0.95129-0.50471 0.728 0.048941 1.2082 0.624 1.4468 1.2878-0.16365-0.061176-0.29212 0.055059-0.36247 0.14071-0.19882 0.24318-0.17588 0.62706 0.027529 0.83965 0.31659 0.33953 0.81059 0.44353 1.1899 0.099412 0.40988-0.37471 0.39153-0.95435 0.24929-1.4453-0.47412-1.638-2.3278-2.7529-3.8755-1.8613 0.31965-0.962 0.69435-1.8185 1.144-2.7636 0.076471-0.16824 0.37165-0.20035 0.52-0.35176 0.30282-0.312 0.19424-0.95282-0.23553-1.1624-0.19576-0.096353-0.43894-0.082588-0.52459 0.087176-0.45576 0.91-0.73718 1.9898-1.7496 2.3614-1.1914 0.43894-2.1672-0.68212-3.3173-0.91459-0.80906-0.16518-1.4208 0.34871-2.1381 0.58882-0.72188-1.7022-1.3046-3.4656-2.1764-5.1006-0.25694-0.48329-0.42365-0.98953-0.79682-1.4453-0.26-0.31965-0.47412-0.58271-0.80294-0.81824-0.28447-0.19882-0.85188-0.46188-1.1425-0.016824 0.40835 0.20953 0.92682 0.49094 0.86718 0.98647-0.015294 0.12847-0.097882 0.22788-0.26765 0.11776-0.27224-0.28906-0.468-0.58271-0.85494-0.72953-0.19729-0.078-0.47871-0.16518-0.65612 0.0076471-0.14071 0.13918-0.22329 0.44047-0.052 0.55518 0.22788 0.14682 0.546 0.038235 0.79529 0.20188 0.31353 0.20035 0.59341 0.49553 0.58576 0.85953-0.0045882 0.076471-0.14224 0.23247-0.20494 0.18047-0.14376-0.11318-0.24471-0.36247-0.42671-0.53988-0.27529-0.26612-0.61482-0.39459-0.87941-0.11776-0.43282 0.45424 0.21259 1.4958 0.73565 2.0066 0.30129 0.29518 0.68824 0.42518 1.118 0.46188 0.16518 1.2985 0.50165 2.6306 0.76929 3.9092-0.44965-0.39612-0.80753-0.80447-1.2082-1.1715-0.39918-0.36553-0.78918-0.75553-1.196-1.1256-0.44506-0.40224-0.84729-0.81976-1.4025-1.1134-0.48329-0.25388-0.94518-0.46953-1.4835-0.338-0.17894 0.042824-0.48941 0.23706-0.39 0.30129 0.34565 0.22635 0.84729 0.23706 1.1761 0.54141 0.15753 0.14376 0.18353 0.62859-0.022941 0.47412-0.55824-0.41753-1.8292-0.99565-1.8781 0.14071-0.0076471 0.17129 0.27376 0.047412 0.55976 0.062706 0.28753 0.015294 0.61024 0.11776 0.80753 0.26918 0.156 0.11624 0.33494 0.19271 0.35941 0.39612 0.016824 0.14224-0.11624 0.28447-0.20494 0.24012-0.32424-0.16518-0.572-0.46035-0.94059-0.43282-0.30282 0.021412-0.54906 0.21412-0.45576 0.46953 0.36553 0.988 1.6793 1.9102 2.704 1.3795 1.3673 1.5829 2.6184 3.2561 4.1294 4.7152 0.33188 0.32118 0.97271-0.14529 1.4652-0.29212-0.096353 0.30588-0.071882 0.59188 0.047412 0.86718 0.69894 1.6548 2.444 2.4516 3.5788 3.7669-0.55671-0.22635-1.1715-0.29976-1.7711-0.25541-0.61024 0.042824-0.96047 0.56129-0.98035 1.1088-0.80141-1.3214-1.5493-2.6581-2.6046-3.8174-0.39612-0.43588-1.0859-1.1578-1.7451-0.50471-0.036706 0.033647-0.05353 0.10706 0.0015294 0.13 0.40376 0.14529 0.82894 0.31812 0.962 0.76165 0.047412 0.16059-0.056588 0.35024-0.15294 0.28447-0.40376-0.28294-0.69588-0.75094-1.2878-0.63165-0.33035 0.067294-0.52 0.56435-0.21718 0.75094 0.22788 0.14071 0.55671 0.12388 0.80294 0.24929 0.16212 0.081059 0.66835 0.38847 0.58576 0.81212-0.012235 0.053529-0.11165 0.17129-0.18659 0.12235-0.18659-0.12541-0.76318-0.988-1.2847-0.59341-0.48176 0.36553 0.18353 1.1318 0.57506 1.5432 0.40835 0.43282 0.988 0.77082 1.5998 0.50929 0.74788 1.5906 1.5355 3.1598 2.2773 4.7519 1.1929-0.77082 2.4838-2.1228 4.0315-1.5233 0.019882 1.2373-0.884 2.3522-0.45576 3.5941 0.39306 1.1409 1.6472 1.5386 2.6872 1.9271-0.41906 1.3704-1.1165 2.6046-1.5264 4.0086-0.20647 0.71424-0.11471 1.6533 0.70353 1.9255-0.058118-0.74941-0.22941-1.0691 0.18812-1.5493 0.13153-0.15447 0.39306-0.068824 0.338 0.12694-0.11318 0.42518-0.27529 0.76929-0.071882 1.2633 0.12541 0.29976 0.39306 0.52 0.68671 0.50012 0.19271-0.010706 0.34259-0.22482 0.37012-0.39765 0.045882-0.30741-0.26153-0.36094-0.33035-0.63776-0.078-0.31353-0.096353-0.59647 0.065765-0.90694 0.079529-0.15294 0.20494-0.25082 0.35788-0.26459 0.070353 0.029059 0.097882 0.041294 0.11318 0.071882 0.13765 0.22788-0.15294 0.43129-0.13612 0.67141 0.016824 0.32271 0.24318 0.73565 0.53529 0.61176 0.754-0.32271 0.79988-1.3122 0.80906-2.0815 0.0045882-0.34412-0.19271-0.67447-0.57812-0.72341 0.62247-1.1211 1.4147-2.1351 1.9974-3.2791-1.0262-0.64694-2.522-1.2189-2.5939-2.5419-0.042824-0.74329 0.11624-1.6716 0.66988-2.2482 0.73718 0.58118 1.4606 1.2006 2.4425 1.3902 1.1226 0.22024 2.2406-0.070353 3.0114-0.93906 0.754-0.84882 0.88706-1.9959 0.50012-2.9166m-7.7878-9.7775c0.13306 0.041294 0.27529 0.51082 0.65765 0.66682-0.042824 0.090235-0.081059 0.22024-0.17129 0.22024-0.26306 0-0.43894-0.19576-0.58118-0.41906-0.15753-0.24776 0.030588-0.48941 0.094824-0.468m-3.562-0.73871c0.033647-0.061176 0.19729-0.15447 0.21259-0.068824 0.058118 0.312 0.28447 0.52918 0.44353 0.754 0.068824 0.099412-0.28906 0.24776-0.43129 0.071882-0.18047-0.21871-0.37929-0.48329-0.22482-0.75706m-1.1639 0.75247c0.0091765-0.048941 0.053529-0.18812 0.18506-0.18506 0.18047 0.024471 0.097882 0.22635 0.12235 0.31659 0.055059 0.20494 0.34871 0.30129 0.31812 0.55671-0.0061176 0.039765-0.093294 0.074941-0.15753 0.088706-0.052 0.010706-0.11776-0.018353-0.156-0.055059-0.22024-0.21412-0.37776-0.43129-0.312-0.72188m-1.1593 0.90082c-0.036706-0.14071 0.12082-0.31047 0.29976-0.23859-0.061176 0.081059 0.12694 0.39 0.17435 0.44812 0.13 0.17282 0.088706 0.19424 0.28294 0.27835-0.078 0.22482-0.34259 0.25235-0.46035 0.091765-0.13153-0.18047-0.24165-0.36859-0.29671-0.57965m0.55671 1.4988c0.026-0.052 0.14224-0.11624 0.17282-0.033647 0.052 0.13459 0.11318 0.23859 0.182 0.35482 0.094824 0.15753 0.40224 0.17741 0.30894 0.41906-0.018353 0.047412-0.10706 0.093294-0.15906 0.084118-0.36247-0.070353-0.68365-0.44965-0.50471-0.82435m0.50012 1.8062c-0.038235-0.18812-0.019882-0.57353 0.234-0.46494 0.10247 0.042824 0.052 0.24929 0.16059 0.40529 0.099412 0.14071 0.24012 0.29212 0.23094 0.36553-0.055059 0.44353-0.56894-0.036706-0.62553-0.30588m0.65612-2.1305c-0.070353-0.13612-0.18353-0.26612-0.19118-0.40835-0.012235-0.11318 0.20035-0.35635 0.25694-0.22482 0.12388 0.27376 0.18047 0.53988 0.51388 0.70047-0.13459 0.31353-0.43741 0.20341-0.57965-0.067294m0.64082 1.5875c-0.18659-0.15906-0.24776-0.45271-0.16976-0.70812 0.0091765-0.030588 0.073412-0.065765 0.10553-0.056588 0.22788 0.065765 0.22788 0.31812 0.32424 0.48941 0.065765 0.12388 0.13153 0.11776 0.21871 0.25541-0.085647 0.28141-0.35482 0.13153-0.47871 0.019882m0.68824-2.4272c-0.20647-0.17741-0.29671-0.39306-0.21412-0.61635 0.016824-0.055059 0.17741-0.15906 0.21412-0.062706 0.104 0.26459 0.19882 0.57353 0.50776 0.62859-0.088706 0.27988-0.30894 0.21718-0.50776 0.05047m0.51541 1.6548c-0.22329-0.21259-0.39153-0.57659-0.16365-0.87482 0.041294-0.053529 0.12541-0.036706 0.13-0.0045882 0.044353 0.33494 0.29059 0.57659 0.44659 0.81976 0.11471 0.17588-0.25847 0.20953-0.41294 0.059647m0.54906-2.9716c-0.058118-0.18506-0.156-0.37624 0.20953-0.494 0.074941 0.38694 0.16976 0.60106 0.40682 0.84118 0.0091765 0.0091765-0.12847 0.099412-0.18659 0.091765-0.19729-0.027529-0.37318-0.25388-0.42976-0.43894m0.39153 1.8093c-0.084118-0.15294-0.16518-0.31506-0.074941-0.46188 0.036706-0.061176 0.18965-0.16059 0.21871-0.067294 0.088706 0.312 0.24624 0.60871 0.54141 0.68976-0.14224 0.34259-0.55671 0.070353-0.68518-0.16059m7.6715 9.7944c-0.20494 0.29976-0.48788 0.52153-0.83047 0.64235-1.6074 0.56741-3.1429-1.8399-3.8296-3.3815-0.83353-1.8781-1.664-3.6507-2.3736-5.5747 0.45882-0.32729 0.81212-0.71576 1.3-1.0614-0.52 1.4346 0.51235 2.834 1.5524 3.7624 1.3551 1.2144 2.7912 2.2161 4.0071 3.6369 0.48329 0.56129 0.598 1.3581 0.17435 1.976"/>
<path d="m60.863 3.1588c0.042824-0.12694 0.18047-0.29365 0.10553-0.35024-0.039765-0.029059-0.22941-0.026-0.30129 0-0.076471 0.024471-0.091765 0.059647-0.12847 0.11471-0.73106 1.0874 0.79529 1.7451 1.3413 2.5281 0.081059 0.12082 0.081059 0.25847 0.093294 0.40071 0.0045883 0.065765 0.052 0.14988 0.15294 0.13306 0.18506-0.030588 0.29824-0.28753 0.27988-0.37776-0.16059-0.77694-1.0584-1.1578-1.4866-1.8108-0.12082-0.182-0.13306-0.41753-0.056588-0.63776"/>
<path d="m62.977 3.1038c-0.055059-0.026-0.10247 0.067294-0.13612 0.13459-0.25541 0.50318-0.74176 0.87482-0.63012 1.4499 0.064235 0.33341 0.49553 0.57812 0.61482 0.71118 0.050471 0.055059 0.093294 0.087176 0.082588 0.156-0.045882 0.29518-0.49553 0.67141-0.832 0.74024-0.36706 0.071882-0.36553-0.65765-0.66529-0.53071-0.29824 0.12847-0.78765 0.86106-0.48176 1.0293 0.92376 0.50929 1.2526 0.68212 2.0035 0.82588 1.2312 0.23859 1.6732-1.3398 2.1167-2.1825 0.085647-0.16365 0.37624-0.21718 0.34565-0.35941-0.24776-1.1364-1.4208-1.5095-2.418-1.9745m1.3214 2.3033c-0.21718-0.015294-0.24776-0.29824-0.20953-0.51694 0.030588-0.17741 0.22176-0.35941 0.38847-0.20647 0.12847 0.12082 0.31506 0.25541 0.28141 0.41906-0.039765 0.19424-0.28141 0.32118-0.46035 0.30435"/>
<path d="m70.89 18.63c-1.0905-2.5985-3.8358-3.7348-5.7154-5.7751-0.39612-0.43129-0.58424-1.0874-0.25847-1.6028 0.21412-0.33341 0.55518-0.52765 0.95588-0.50165 0.72494 0.048941 1.2052 0.624 1.4422 1.2862-0.16059-0.059647-0.29059 0.055059-0.36094 0.14376-0.20035 0.24165-0.17435 0.624 0.027529 0.83965 0.31659 0.338 0.81212 0.44353 1.1899 0.097882 0.40988-0.37318 0.39306-0.95435 0.25082-1.4453-0.47565-1.638-2.3308-2.7529-3.8755-1.8598 0.31506-0.96506 0.68976-1.82 1.1425-2.7652 0.078-0.16671 0.37471-0.20035 0.52-0.35176 0.30282-0.312 0.19271-0.95282-0.234-1.1624-0.19729-0.097882-0.44047-0.082588-0.52306 0.084118-0.45882 0.91306-0.74024 1.9928-1.7527 2.3675-1.1914 0.43741-2.1641-0.68671-3.3158-0.91765-0.81212-0.16365-1.4208 0.34871-2.1396 0.58882-0.72035-1.7022-1.3046-3.4656-2.1733-5.1006-0.26-0.48329-0.42671-0.98953-0.79835-1.4453-0.25847-0.31812-0.47259-0.58271-0.806-0.81824-0.28141-0.20035-0.85188-0.46188-1.1394-0.013765 0.41141 0.20647 0.92529 0.48941 0.86871 0.98035-0.016824 0.13306-0.10094 0.23094-0.27071 0.12235-0.27071-0.29212-0.468-0.58424-0.85494-0.73106-0.19729-0.074941-0.47718-0.16365-0.65306 0.0091765-0.14224 0.13918-0.22329 0.43894-0.053529 0.55365 0.22329 0.14835 0.54447 0.039765 0.79224 0.19882 0.32118 0.20494 0.59647 0.49706 0.58576 0.86259-0.0015294 0.076471-0.14071 0.23094-0.20035 0.182-0.14835-0.11776-0.24624-0.364-0.42976-0.54141-0.27529-0.26459-0.61482-0.39612-0.87941-0.11471-0.43282 0.45118 0.20953 1.4958 0.73565 2.0051 0.30282 0.29212 0.68671 0.42365 1.1149 0.46035 0.16976 1.2985 0.50776 2.6306 0.77388 3.9092-0.45118-0.39612-0.80906-0.806-1.2082-1.1715-0.40224-0.36706-0.79071-0.75706-1.196-1.1256-0.44506-0.40376-0.84576-0.82129-1.4025-1.1134-0.48329-0.25541-0.94518-0.468-1.4851-0.33953-0.17894 0.044353-0.48788 0.23859-0.39 0.30435 0.34565 0.22482 0.84882 0.23553 1.1776 0.54141 0.15753 0.14376 0.18353 0.62706-0.022941 0.47259-0.55976-0.41753-1.8276-0.99565-1.8781 0.14071-0.0076471 0.17282 0.27224 0.045882 0.55976 0.061176 0.28753 0.015294 0.60871 0.12082 0.80753 0.26918 0.15447 0.11776 0.33341 0.19424 0.35788 0.40071 0.016824 0.13765-0.11318 0.28141-0.20647 0.23553-0.32118-0.16518-0.56894-0.45882-0.94059-0.43129-0.29976 0.021412-0.546 0.21412-0.45424 0.46953 0.36706 0.98953 1.6793 1.9102 2.7055 1.3795 1.3673 1.5845 2.6138 3.2576 4.1309 4.7167 0.32882 0.31812 0.96965-0.14682 1.4636-0.29518-0.097882 0.30741-0.070353 0.59647 0.044353 0.87024 0.70353 1.6533 2.4471 2.4532 3.5834 3.7685-0.55976-0.22635-1.1731-0.30129-1.7726-0.25847-0.61024 0.042824-0.95894 0.55976-0.97882 1.1073-0.80294-1.3199-1.5524-2.6551-2.6076-3.8159-0.39459-0.43588-1.0859-1.1578-1.7451-0.50776-0.036706 0.038235-0.05353 0.11318 0.0030588 0.13306 0.40224 0.14682 0.83047 0.31965 0.962 0.76318 0.047412 0.15753-0.056588 0.35024-0.15294 0.28294-0.40529-0.28294-0.69894-0.74788-1.2862-0.63012-0.33188 0.067294-0.52153 0.56435-0.21718 0.75094 0.22482 0.14071 0.55518 0.12388 0.79988 0.24776 0.16518 0.082588 0.66529 0.39 0.58424 0.81365-0.010706 0.053529-0.10859 0.16976-0.18506 0.12082-0.18659-0.12388-0.76471-0.988-1.2832-0.59341-0.48176 0.36706 0.182 1.1333 0.57353 1.5447 0.41141 0.43282 0.988 0.76929 1.6028 0.50624 0.74176 1.5952 1.5325 3.1613 2.2742 4.7549 1.1945-0.77082 2.4868-2.1259 4.0315-1.5218 0.018353 1.2358-0.88553 2.3476-0.45729 3.5895 0.39153 1.144 1.6487 1.5401 2.6872 1.9286-0.41753 1.3704-1.1149 2.6046-1.5233 4.0086-0.20647 0.71424-0.11471 1.6533 0.70353 1.9255-0.061176-0.75094-0.22788-1.0691 0.18353-1.5493 0.13306-0.15294 0.39612-0.070353 0.34259 0.12694-0.11318 0.42518-0.27376 0.76929-0.071882 1.2618 0.12235 0.30129 0.39306 0.52306 0.68671 0.50318 0.19271-0.010706 0.34259-0.22482 0.37012-0.39765 0.044353-0.30894-0.26-0.36247-0.33035-0.64082-0.081059-0.312-0.10094-0.59647 0.064235-0.90694 0.081059-0.15141 0.20647-0.24776 0.35941-0.26306 0.071882 0.029059 0.094824 0.039765 0.11165 0.071882 0.13918 0.22635-0.15294 0.43129-0.13612 0.67294 0.018353 0.32424 0.24624 0.73412 0.53529 0.61024 0.75247-0.32271 0.79988-1.3107 0.80906-2.0815 0.0030588-0.34412-0.19271-0.67294-0.57812-0.72341 0.62247-1.118 1.4132-2.1351 1.9944-3.2791-1.0216-0.65-2.5189-1.2189-2.5893-2.5419-0.042824-0.74176 0.11624-1.6701 0.66835-2.2482 0.73871 0.57965 1.4621 1.2021 2.4409 1.3918 1.1256 0.21871 2.2436-0.070353 3.016-0.94059 0.74941-0.84729 0.88553-1.9959 0.49859-2.9151m-7.7893-9.7791c0.13153 0.041294 0.27682 0.50929 0.65918 0.66682-0.042824 0.091765-0.081059 0.22024-0.17129 0.22024-0.26612-0.0015294-0.43894-0.19576-0.57965-0.41906-0.15906-0.24776 0.026-0.48788 0.091765-0.468m-3.5635-0.73718c0.036706-0.062706 0.19882-0.15447 0.21565-0.068824 0.058118 0.312 0.28141 0.52765 0.442 0.754 0.071882 0.094824-0.28753 0.24471-0.43282 0.068824-0.17894-0.21718-0.37471-0.48024-0.22482-0.754m-1.1624 0.754c0.012235-0.052 0.055059-0.19118 0.18353-0.18659 0.182 0.026 0.099412 0.22635 0.12541 0.31353 0.053529 0.208 0.35024 0.30282 0.31659 0.55824-0.0045882 0.038235-0.093294 0.073412-0.15753 0.087176-0.052 0.012235-0.11471-0.015294-0.15447-0.055059-0.22024-0.21259-0.37776-0.43129-0.31353-0.71729m-1.1624 0.89624c-0.035176-0.13918 0.12541-0.30741 0.30588-0.23706-0.062706 0.081059 0.12388 0.38847 0.16976 0.44965 0.13306 0.17129 0.093294 0.19118 0.286 0.27682-0.081059 0.22329-0.34565 0.25235-0.45882 0.090235-0.13306-0.17894-0.24471-0.36553-0.30282-0.57965m0.55976 1.5019c0.024471-0.050471 0.14376-0.11776 0.17435-0.035176 0.048941 0.13612 0.11318 0.23859 0.182 0.35482 0.093294 0.15906 0.40224 0.17741 0.30894 0.41753-0.018353 0.048941-0.10859 0.093294-0.15753 0.085647-0.36706-0.068824-0.68671-0.44965-0.50776-0.82282m0.50165 1.8047c-0.038235-0.19118-0.024471-0.57506 0.23094-0.46494 0.104 0.044353 0.053529 0.24929 0.16518 0.40835 0.096353 0.13765 0.23706 0.28906 0.22788 0.364-0.055059 0.442-0.56741-0.036706-0.624-0.30741m0.65612-2.1305c-0.071882-0.13612-0.18353-0.26765-0.19424-0.40835-0.010706-0.11471 0.20341-0.35788 0.26-0.22329 0.12082 0.27071 0.182 0.53835 0.51082 0.70047-0.13612 0.30894-0.43435 0.20188-0.57659-0.068824m0.63776 1.5891c-0.18353-0.16212-0.24776-0.45271-0.16671-0.71118 0.0076471-0.029059 0.070353-0.064235 0.10247-0.055059 0.23247 0.065765 0.23247 0.31812 0.32576 0.49094 0.067294 0.12235 0.13153 0.11624 0.22176 0.25541-0.087176 0.27988-0.35788 0.13-0.48329 0.019882m0.69129-2.4302c-0.20494-0.17588-0.29824-0.39-0.21565-0.61482 0.018353-0.053529 0.17741-0.15906 0.21412-0.061176 0.104 0.26306 0.20341 0.572 0.50776 0.62553-0.087176 0.28141-0.30894 0.22176-0.50624 0.05047m0.51541 1.6579c-0.22329-0.21259-0.39612-0.57812-0.16518-0.87635 0.041294-0.05353 0.12388-0.035176 0.12694-0.0030589 0.047412 0.33341 0.29518 0.57659 0.45271 0.81671 0.11165 0.17894-0.25847 0.21412-0.41447 0.062706m0.54906-2.9747c-0.058118-0.18353-0.15447-0.37318 0.21106-0.49247 0.073412 0.38847 0.16518 0.60106 0.40376 0.84271 0.012235 0.0076471-0.13 0.096353-0.18659 0.090235-0.20035-0.026-0.37318-0.25388-0.42824-0.44047m0.39 1.8108c-0.084118-0.15294-0.16518-0.31812-0.073412-0.46188 0.038235-0.062706 0.19118-0.16059 0.21565-0.065765 0.091765 0.312 0.24929 0.60718 0.54294 0.68976-0.14376 0.33953-0.55518 0.068824-0.68518-0.16212m7.6731 9.7959c-0.20341 0.29824-0.48941 0.52153-0.83047 0.64235-1.6074 0.56894-3.1429-1.8414-3.8281-3.3815-0.83506-1.8781-1.6671-3.6522-2.3767-5.5732 0.46035-0.33188 0.81212-0.72035 1.2985-1.0629-0.51847 1.4346 0.51694 2.8325 1.5539 3.7608 1.3566 1.2144 2.7912 2.2161 4.0101 3.6354 0.48024 0.56435 0.59341 1.3596 0.17282 1.9791"/>
</g>
<path d="m162.27 29.194v2.6489h0.045882c0.68976-1.4698 1.5799-2.8279 3.406-2.8279h0.66988v1.5814c-2.2727-0.312-3.4534 2.1366-4.1218 3.9168v6.9695h-1.7359v-12.289h1.7359" fill="#000"/>
<path d="m10.931 28.324-1.6472 0.51235c-0.57965-1.9362-1.3811-3.5391-3.6079-3.5391-1.5799 0-3.0481 1.2694-3.0481 2.9609 0 4.316 8.4362 2.626 8.4362 8.6809 0 3.0282-2.2482 4.8987-5.1648 4.8987-3.094 0-5.2979-1.8919-5.8989-4.8987l1.7588-0.42212c0.42212 2.0494 1.9806 3.8281 4.1631 3.8281 1.7802 0 3.3173-1.3566 3.3173-3.2056 0-4.8069-8.4378-2.8034-8.4378-8.6136 0-2.8493 2.2253-4.7198 4.9874-4.7198 2.7376 0 4.4965 2.0249 5.1419 4.5179" fill="#000"/>
<path d="m17.012 25.208v3.9841h2.782v1.4698h-2.782v7.7235c0 1.2036-0.021412 1.9836 1.404 1.9836 0.48788 0 0.95588-0.045882 1.378-0.15906v1.2709c-0.55518 0.19882-1.1348 0.35635-1.7359 0.35635-2.9395 0-2.782-1.9821-2.782-4.2304v-6.9451h-1.8705v-1.4698h1.8705v-3.9841h1.7359" fill="#000"/>
<path d="m31.154 41.483h-1.8934l-0.17588-1.56c-1.0033 0.98035-2.1152 1.9164-3.5635 1.9164-1.8919 0-3.406-1.5814-3.406-3.5176 0-3.5161 3.6951-4.2732 6.4113-5.0104l0.55824-0.15447v-0.68976c0-1.404-0.95741-2.158-2.3385-2.158-1.3581 0-2.2926 0.88859-3.0068 1.9347l-1.222-0.91306c1.0232-1.4682 2.3584-2.4929 4.2288-2.4929 1.6701 0 4.0728 1.0247 4.0728 3.8281v6.0993c0.022941 0.91459-0.021412 1.8491 0.33494 2.7178m-2.0693-6.9022-0.69129 0.20035c-1.6472 0.48941-4.654 1.1562-4.654 3.3601 0 1.0247 0.80141 2.0494 1.8491 2.0494 1.3811 0 2.6505-0.95741 3.4962-2.0035v-3.6064" fill="#000"/>
<path d="m50.44 25.208v3.9841h2.782v1.4698h-2.782v7.7235c0 1.2036-0.021412 1.9836 1.4025 1.9836 0.48941 0 0.95741-0.045882 1.3795-0.15906v1.2709c-0.55518 0.19882-1.1333 0.35635-1.7359 0.35635-2.938 0-2.782-1.9821-2.782-4.2304v-6.9451h-1.8705v-1.4698h1.8705v-3.9841h1.7359" fill="#000"/>
<path d="m41.976 38.031v-5.6986c-0.53376-1.0691-1.5355-1.9821-2.8722-1.9821-2.4256 0-2.938 3.3387-2.938 5.1878 0 3.6064 1.7145 4.7855 2.9166 4.7855 1.2235 0 2.4042-1.2465 2.8936-2.2926m0-7.5691v-6.2996h1.7359v17.319h-1.7359v-1.404c-0.82435 1.0247-1.7802 1.7604-3.1399 1.7604-1.6701 0-4.4965-1.5386-4.4965-6.2568 0-4.8299 2.4501-6.7447 4.5653-6.7447 1.1792 0 2.2696 0.77847 3.0711 1.6258" fill="#000"/>
<polygon points="78.624 24.162 74.661 41.481 72.881 41.481 69.942 27.324 69.897 27.324 66.803 41.481 65.023 41.481 61.394 24.162 63.13 24.162 65.979 38.141 66.023 38.141 69.14 24.162 70.855 24.162 73.816 38.141 73.86 38.141 76.91 24.162" fill="#000"/>
<polygon points="81.339 41.483 83.075 41.483 83.075 29.194 81.339 29.194" fill="#000"/>
<polygon points="81.339 26.076 83.075 26.076 83.075 24.162 81.339 24.162" fill="#000"/>
<path d="m88.958 32.13v9.3508h-1.7374v-12.289h1.7374v1.2694c1.0216-0.82282 1.9806-1.6258 3.3815-1.6258 1.7374 0 3.1399 0.95588 3.1399 4.1631v8.4821h-1.7344v-8.0355c0-1.2924 0.22024-3.1842-1.6273-3.1842-1.0691 0-2.47 1.0461-3.1598 1.8689" fill="#000"/>
<path d="m101.81 25.208v3.9841h2.782v1.4698h-2.782v7.7235c0 1.2036-0.022942 1.9836 1.404 1.9836 0.48788 0 0.95435-0.045882 1.378-0.15906v1.2709c-0.55671 0.19882-1.1348 0.35635-1.7374 0.35635-2.938 0-2.782-1.9821-2.782-4.2304v-6.9451h-1.8689v-1.4698h1.8689v-3.9841h1.7374" fill="#000"/>
<path d="m121.25 29.194v2.6489h0.042824c0.68976-1.4698 1.5829-2.8279 3.4075-2.8279h0.66835v1.5814c-2.2727-0.312-3.4519 2.1366-4.1187 3.9168v6.9695h-1.7359v-12.289h1.7359" fill="#000"/>
<path d="m130.49 25.208v3.9841h2.782v1.4698h-2.782v7.7235c0 1.2036-0.021412 1.9836 1.4025 1.9836 0.48941 0 0.95741-0.045882 1.3795-0.15906v1.2709c-0.55671 0.19882-1.1364 0.35635-1.7359 0.35635-2.9395 0-2.782-1.9821-2.782-4.2304v-6.9451h-1.8705v-1.4698h1.8705v-3.9841h1.7359" fill="#000"/>
<path d="m115.9 35.627h-7.4146c0 3.5176 1.4927 4.7427 3.2729 4.7427 1.2924 0 2.3844-1.0461 3.0068-2.1152l1.2465 0.82282c-0.66835 1.5814-2.3155 2.7621-4.4307 2.7621-2.7376 0-4.9201-1.8919-4.9201-6.5015 0-4.6096 2.1825-6.5 4.9201-6.5 3.5406 0 4.5638 3.7838 4.3191 6.7891m-7.3687-1.4682h5.5441c0.044353-1.5829-0.80294-3.8511-2.6275-3.8511-1.9592 0-2.8952 2.1136-2.9166 3.8511" fill="#000"/>
<path d="m138.06 24.162v6.2996c1.0247-0.82282 1.9836-1.6258 3.3846-1.6258 1.7374 0 3.1384 0.95588 3.1384 4.1631v8.4821h-1.7359v-8.0355c0-1.2924 0.22482-3.1842-1.6242-3.1842-1.0706 0-2.4715 1.0461-3.1628 1.8689v9.3508h-1.7359v-17.319h1.7359" fill="#000"/>
<path d="m154.77 38.542v-9.3493h1.7359v12.289h-1.7359v-1.2709c-1.0278 0.82435-1.9821 1.6273-3.3846 1.6273-1.7374 0-3.1384-0.95741-3.1384-4.1631v-8.4821h1.7344v8.0386c0 1.2893 0.22329 3.1827 1.6258 3.1827 1.0675 0 2.4715-1.0476 3.1628-1.872" fill="#000"/>
</g>
</g>
</g>
</svg>
